<svg xmlns="http://www.w3.org/2000/svg" width="400" height="400" viewBox="0 0 400 400">
  <rect width="400" height="400" fill="#fdfbf7"/>
  <rect x="10" y="10" width="380" height="380" fill="none" stroke="#e7e5e4" stroke-width="1"/>
  <g transform="translate(160, 140)" fill="none" stroke="#d6d3d1" stroke-width="2" stroke-linecap="round" stroke-linejoin="round">
    <path d="M10 20 h50 a5 5 0 0 1 5 5 v30 a25 25 0 0 1 -25 25 h-5 a25 25 0 0 1 -25 -25 v-30 a5 5 0 0 1 5 -5 z"/>
    <path d="M65 30 a12 12 0 0 1 0 20 h-5"/>
    <path d="M20 5 h0.01M40 5 h0.01M30 0 h0.01"/>
  </g>
  <text x="200" y="250" text-anchor="middle" font-family="ui-serif, Georgia, Cambria, serif" font-size="11" fill="#78716c" font-style="italic" letter-spacing="0.15em">
    IDÉES CASA
  </text>
  <text x="200" y="275" text-anchor="middle" font-family="ui-sans-serif, system-ui, sans-serif" font-size="9" font-weight="600" fill="#a8a29e" letter-spacing="0.2em">
    DOCUMENTATION TECHNIQUE
  </text>
</svg>
